<svg width="30.000000" height="23.000000" viewBox="0 0 30 23" fill="none" xmlns="http://www.w3.org/2000/svg" xmlns:xlink="http://www.w3.org/1999/xlink">
	<desc>
			Created with Pixso.
	</desc>
	<defs/>
	<path d="M25.9814 23L4.01904 23C1.80273 23 0 21.2046 0 19L0 4C0 1.79419 1.80273 0 4.01904 0L25.981 0C28.1958 0 30 1.79419 30 4L30 19C30.0005 21.2051 28.1973 23 25.9814 23ZM4.01904 1.14282C2.43555 1.14282 1.14844 2.42407 1.14844 4L1.14844 19C1.14844 20.5754 2.43555 21.8572 4.01904 21.8572L25.981 21.8572C27.564 21.8572 28.8516 20.5754 28.8516 19L28.8516 4C28.8516 2.42407 27.564 1.14282 25.981 1.14282L4.01904 1.14282ZM20.7036 3.35986C22.1362 3.35986 23.2979 4.51538 23.2979 5.94165C23.2979 7.36768 22.1367 8.52368 20.7036 8.52368C19.2705 8.52368 18.1099 7.36792 18.1099 5.94165C18.1099 4.51514 19.271 3.35986 20.7036 3.35986ZM24.3203 3.35986C25.7529 3.35986 26.915 4.51538 26.915 5.94165C26.915 7.36768 25.7534 8.52368 24.3203 8.52368C22.8872 8.52368 21.7266 7.36792 21.7266 5.94165C21.7266 4.51514 22.8877 3.35986 24.3203 3.35986ZM3.08594 16.3337L7.86816 16.3337L7.86816 18.0481L3.08594 18.0481L3.08594 16.3337ZM9.43457 16.3337L14.2173 16.3337L14.2173 18.0481L9.43457 18.0481L9.43457 16.3337ZM15.7817 16.3337L20.5659 16.3337L20.5659 18.0481L15.7817 18.0481L15.7817 16.3337ZM22.1304 16.3337L26.9146 16.3337L26.9146 18.0481L22.1304 18.0481L22.1304 16.3337ZM3.08594 3.36035L12.1265 3.36035L12.1265 5.07471L3.08594 5.07471L3.08594 3.36035ZM3.08594 6.76196L7.86963 6.76196L7.86963 8.47632L3.08594 8.47632L3.08594 6.76196Z" fill="#292929" fill-opacity="1.000000" fill-rule="evenodd"/>
</svg>
