<svg width="60.023438" height="60.000000" viewBox="0 0 60.0234 60" fill="none" xmlns="http://www.w3.org/2000/svg" xmlns:xlink="http://www.w3.org/1999/xlink">
	<desc>
			Created with Pixso.
	</desc>
	<defs/>
	<rect width="60.000000" height="59.999931" transform="translate(0.023438 0.000000)" fill="#FFFFFF" fill-opacity="0"/>
	<path d="M40.2451 1.17188C40.2451 0.524658 40.7695 0 41.417 0C42.0635 0 42.5889 0.524658 42.5889 1.17188L42.5889 3.13354C42.5889 3.78076 42.0635 4.30542 41.417 4.30542C40.7695 4.30542 40.2451 3.78076 40.2451 3.13354L40.2451 1.17188ZM47.9893 3.27222C48.499 2.87256 49.2354 2.96118 49.6348 3.47021C50.0342 3.97949 49.9463 4.71606 49.4365 5.11572L47.8008 6.3999C47.5947 6.56226 47.3408 6.65039 47.0781 6.65015C46.9004 6.65039 46.7246 6.61011 46.5654 6.53247C46.4053 6.45483 46.2656 6.3418 46.1553 6.2019C45.7559 5.69263 45.8447 4.95605 46.3535 4.5564L47.9893 3.27222ZM36.4795 4.55664L34.8438 3.27222C34.7227 3.17725 34.584 3.10693 34.4365 3.06543C34.2881 3.02417 34.1328 3.01221 33.9805 3.03052C33.8271 3.04907 33.6797 3.09717 33.5459 3.17285C33.4111 3.24829 33.2939 3.34937 33.1982 3.47046C32.7988 3.97949 32.8877 4.71606 33.3965 5.11572L35.0322 6.3999C35.2383 6.56226 35.4932 6.65039 35.7549 6.65015C35.9326 6.65039 36.1084 6.61011 36.2686 6.53247C36.4277 6.45483 36.5684 6.3418 36.6777 6.2019C37.0771 5.69287 36.9893 4.9563 36.4795 4.55664ZM55.0283 12.7114L48.0049 12.7114L48.0049 12.5095C48.0049 8.87671 45.0498 5.92114 41.417 5.92114C37.7842 5.92114 34.8281 8.87671 34.8281 12.5095L34.8281 12.7114L26.5811 12.7114C23.8652 12.7114 21.6553 14.9209 21.6553 17.6365L21.6553 23.2009L14.2695 23.2009C12.5068 23.2009 10.9414 24.2561 10.2793 25.8894C10.2695 25.9133 10.2607 25.9375 10.2529 25.9619L5.99121 38.8689C5.95312 38.8918 5.90332 38.9192 5.8418 38.9497C5.59863 39.0715 5.14258 39.2568 4.3584 39.4485C3.11426 39.75 2.00781 40.4617 1.2168 41.4688C0.425781 42.4758 -0.00292969 43.72 0 45.0005L0 51.0986C0 53.1406 1.66113 54.8018 3.70312 54.8018L8.92676 54.802C9.47852 57.7561 12.0752 60 15.1865 60C18.2988 60 20.8945 57.7561 21.4463 54.802L39.8711 54.8025C40.4229 57.7563 43.0186 60 46.1299 60C49.2412 60 51.8379 57.7566 52.3896 54.8025L55.707 54.8027C58.2471 54.8027 59.9531 53.0962 59.9531 50.5569L59.9531 20.0801C59.9531 13.4294 56.5088 12.7114 55.0283 12.7114ZM37.1719 12.5095C37.1719 10.1689 39.0762 8.26489 41.417 8.26489C43.7568 8.26489 45.6611 10.1689 45.6611 12.5095L45.6611 12.7114L37.1719 12.7114L37.1719 12.5095ZM55.707 52.4587L52.3916 52.4587C52.3877 52.438 52.3828 52.4175 52.3779 52.3967C52.3506 52.259 52.3193 52.1223 52.2832 51.9863C52.2666 51.927 52.25 51.8679 52.2324 51.8091C52.2217 51.7725 52.2109 51.7358 52.1992 51.6995C52.1797 51.6382 52.1592 51.5771 52.1367 51.5166C52.126 51.4841 52.1152 51.4514 52.1025 51.4192C52.0762 51.3491 52.0488 51.2798 52.0205 51.2109C52.0117 51.1892 52.0029 51.167 51.9941 51.1453C51.9551 51.0542 51.9141 50.9641 51.8721 50.875C51.8662 50.8638 51.8604 50.8533 51.8555 50.8423C51.8174 50.7656 51.7783 50.6897 51.7383 50.6145C51.7236 50.5872 51.708 50.5603 51.6924 50.533C51.6602 50.4749 51.627 50.4175 51.5928 50.3606C51.5742 50.3298 51.5557 50.2996 51.5361 50.269C51.4844 50.1846 51.4297 50.1016 51.373 50.02C51.3174 49.9395 51.2598 49.8601 51.2012 49.7822C51.1641 49.7336 51.126 49.6858 51.0879 49.6384C51.0645 49.6101 51.042 49.5818 51.0195 49.554C50.9775 49.5044 50.9346 49.4553 50.8916 49.407C50.8701 49.3831 50.8496 49.3584 50.8281 49.335C50.7744 49.2764 50.7197 49.2188 50.6631 49.1624C50.6514 49.1501 50.6396 49.1375 50.6279 49.1252C50.5586 49.0564 50.4883 48.989 50.416 48.9233C50.4004 48.9092 50.3848 48.896 50.3691 48.8821C50.3125 48.8315 50.2549 48.7815 50.1963 48.7329C50.1709 48.7117 50.1445 48.6912 50.1191 48.6704C50.0693 48.6304 50.0195 48.5911 49.9688 48.5525C49.9395 48.53 49.9092 48.5081 49.8789 48.4861C49.752 48.3928 49.6211 48.3042 49.4863 48.2209C49.4541 48.2004 49.4209 48.1802 49.3877 48.1602C49.3359 48.1292 49.2832 48.0994 49.2305 48.0698C49.1982 48.0515 49.165 48.0332 49.1328 48.0156C49.0752 47.9846 49.0166 47.9553 48.958 47.9263C48.9297 47.9116 48.9004 47.8965 48.8711 47.8826C48.7949 47.8459 48.7178 47.811 48.6396 47.7776C48.6279 47.7725 48.6162 47.7668 48.6035 47.7615C48.5127 47.7234 48.4219 47.687 48.3291 47.6531C48.3027 47.6433 48.2754 47.6348 48.249 47.6255C48.1826 47.6021 48.1162 47.5789 48.0488 47.5576C48.0137 47.5464 47.9785 47.5364 47.9424 47.5259C47.8828 47.5081 47.8232 47.4907 47.7627 47.4746C47.7246 47.4644 47.6855 47.4548 47.6465 47.4453C47.5479 47.4211 47.4492 47.3992 47.3496 47.3799C47.29 47.3684 47.2314 47.3577 47.1719 47.3479C47.1309 47.3413 47.0908 47.3345 47.0498 47.3286C46.9883 47.3198 46.9268 47.312 46.8643 47.3052C46.8252 47.3005 46.7861 47.2957 46.7461 47.292C46.6777 47.2856 46.6094 47.2803 46.541 47.2761C46.5068 47.2742 46.4736 47.271 46.4404 47.2693C46.3369 47.2644 46.2334 47.2617 46.1299 47.2615C46.0264 47.2615 45.9229 47.2644 45.8203 47.2693C45.7861 47.271 45.7529 47.2742 45.7188 47.2761C45.6504 47.2805 45.582 47.2854 45.5137 47.292C45.4736 47.2957 45.4346 47.3008 45.3955 47.3052C45.333 47.3125 45.2715 47.3198 45.21 47.3289C45.1689 47.3347 45.1289 47.3416 45.0879 47.3481C44.9873 47.365 44.8877 47.3838 44.7891 47.4048C44.7305 47.4175 44.6719 47.4309 44.6143 47.4453C44.5752 47.4548 44.5352 47.4646 44.4961 47.4749C44.4365 47.4907 44.3779 47.5078 44.3184 47.5254C44.2822 47.5361 44.2461 47.5464 44.21 47.5579C44.1445 47.5789 44.0791 47.6011 44.0137 47.6243C43.9863 47.634 43.958 47.6431 43.9307 47.6533C43.8379 47.6875 43.7471 47.7231 43.6572 47.7612C43.6416 47.7676 43.6279 47.7747 43.6123 47.7812C43.5371 47.8137 43.4629 47.8469 43.3896 47.8821C43.3584 47.897 43.3281 47.9131 43.2969 47.9282C43.2402 47.9565 43.1846 47.9849 43.1289 48.0146C43.0947 48.0332 43.0605 48.0525 43.0264 48.0715C42.9756 48.1001 42.9248 48.1294 42.874 48.1592C42.7559 48.2305 42.6396 48.3052 42.5254 48.3833C42.4775 48.416 42.4307 48.4495 42.3848 48.4834C42.3525 48.5068 42.3203 48.53 42.2891 48.554C42.2412 48.5903 42.1934 48.6282 42.1465 48.666C42.1182 48.6887 42.0898 48.7109 42.0615 48.7344C42.0068 48.7795 41.9541 48.8259 41.9014 48.8728C41.8818 48.8901 41.8623 48.9067 41.8428 48.9243C41.7715 48.9893 41.7021 49.0557 41.6338 49.1235C41.6162 49.1406 41.6006 49.1587 41.583 49.176C41.5332 49.2275 41.4824 49.2795 41.4336 49.3328C41.4092 49.3596 41.3857 49.387 41.3623 49.4141C41.3213 49.4595 41.2822 49.5049 41.2432 49.5513C41.2178 49.5818 41.1934 49.6125 41.168 49.6433C41.1318 49.6882 41.0967 49.7332 41.0615 49.7788C40.9775 49.8889 40.8975 50.0017 40.8213 50.1169C40.7891 50.165 40.7578 50.2136 40.7275 50.2627C40.7061 50.2961 40.6855 50.3296 40.665 50.3635C40.6338 50.416 40.6035 50.4695 40.5732 50.5232C40.5557 50.5544 40.5371 50.5854 40.5205 50.6172C40.4844 50.6841 40.4502 50.752 40.416 50.8201C40.4062 50.8394 40.3965 50.8579 40.3877 50.8774C40.3447 50.9651 40.3047 51.0535 40.2666 51.1431C40.2549 51.1704 40.2451 51.1982 40.2334 51.2258C40.208 51.2888 40.1826 51.3523 40.1582 51.4165C40.1445 51.4524 40.1328 51.4888 40.1201 51.5247C40.0996 51.5815 40.0801 51.6389 40.0615 51.6963C40.0488 51.7356 40.0381 51.7751 40.0254 51.8147C39.9971 51.9109 39.9707 52.0081 39.9463 52.1057C39.9326 52.1619 39.9199 52.2188 39.9072 52.2759C39.8984 52.3171 39.8896 52.3584 39.8809 52.4001C39.877 52.4197 39.8721 52.4392 39.8691 52.4587L21.4473 52.4585C21.4434 52.4382 21.4385 52.4182 21.4346 52.3979C21.4268 52.3579 21.418 52.3181 21.4102 52.2783C21.376 52.1213 21.3359 51.9658 21.29 51.8123C21.2783 51.7739 21.2666 51.7358 21.2549 51.6978C21.2363 51.6389 21.2158 51.5803 21.1953 51.5222C21.1826 51.4873 21.1709 51.4521 21.1582 51.4175C21.1338 51.3523 21.1084 51.2874 21.082 51.2231C21.0703 51.1968 21.0605 51.1697 21.0498 51.1436C21.0117 51.0537 20.9707 50.9648 20.9287 50.8772C20.9199 50.8594 20.9111 50.8423 20.9023 50.8247C20.8682 50.7549 20.832 50.6855 20.7959 50.6169C20.7793 50.5859 20.7607 50.5557 20.7441 50.5249C20.7129 50.4707 20.6826 50.4165 20.6504 50.3633C20.6309 50.3298 20.6094 50.2969 20.5889 50.2637C20.5586 50.2144 20.5264 50.1653 20.4951 50.1169C20.418 50.002 20.3379 49.8894 20.2539 49.7793C20.2197 49.7334 20.1836 49.6885 20.1475 49.6438C20.123 49.613 20.0986 49.582 20.0732 49.5515C20.0342 49.5054 19.9941 49.46 19.9541 49.4148C19.9307 49.3875 19.9062 49.3599 19.8818 49.333C19.834 49.2803 19.7842 49.229 19.7344 49.1777C19.7168 49.1599 19.6992 49.1414 19.6816 49.1238C19.6143 49.0559 19.5439 48.9897 19.4736 48.925C19.4541 48.907 19.4326 48.8899 19.4131 48.8721C19.3613 48.8254 19.3086 48.7798 19.2549 48.7349C19.2266 48.7114 19.1973 48.6887 19.1689 48.6658C19.1221 48.6282 19.0752 48.5908 19.0273 48.5547C18.9951 48.5305 18.9629 48.5071 18.9307 48.4836C18.8848 48.4497 18.8379 48.4165 18.791 48.3838C18.71 48.3286 18.6279 48.2749 18.5449 48.2231C18.5107 48.2017 18.4766 48.1804 18.4414 48.1594C18.3916 48.1296 18.3408 48.1006 18.29 48.0723C18.2559 48.053 18.2217 48.0337 18.1875 48.0151C18.1318 47.9856 18.0762 47.957 18.0195 47.9292C17.9883 47.9136 17.958 47.8975 17.9268 47.8823C17.8535 47.8479 17.7803 47.8145 17.7061 47.7827C17.6904 47.7759 17.6748 47.7683 17.6592 47.7615C17.5693 47.7234 17.4775 47.6875 17.3857 47.6536C17.3574 47.6433 17.3291 47.634 17.3008 47.624C17.2363 47.6011 17.1709 47.5789 17.1064 47.5581C17.0703 47.5466 17.0332 47.5361 16.9971 47.5254C16.9385 47.5078 16.8789 47.491 16.8193 47.4751C16.7803 47.4646 16.7412 47.4551 16.7012 47.4453C16.5449 47.4067 16.3877 47.3743 16.2285 47.3484C16.1875 47.3418 16.1465 47.335 16.1055 47.3289C16.0439 47.3201 15.9824 47.3123 15.9209 47.3054C15.8818 47.3008 15.8418 47.2959 15.8027 47.292C15.7344 47.2856 15.666 47.2805 15.5967 47.2764C15.5635 47.2742 15.5303 47.2712 15.4961 47.2695C15.3926 47.2644 15.2891 47.2617 15.1865 47.2617C15.082 47.2617 14.9785 47.2646 14.876 47.2695C14.8418 47.2712 14.8086 47.2742 14.7754 47.2764C14.7061 47.2808 14.6377 47.2854 14.5693 47.292C14.5303 47.2959 14.4902 47.3008 14.4512 47.3054C14.3896 47.3123 14.3281 47.3201 14.2666 47.3289C14.2256 47.335 14.1846 47.3418 14.1436 47.3484C14.0439 47.3647 13.9434 47.3838 13.8447 47.405C13.7861 47.4175 13.7285 47.4309 13.6709 47.4451C13.6318 47.4548 13.5918 47.4646 13.5518 47.4751C13.4932 47.491 13.4346 47.5076 13.376 47.5251C13.3398 47.5359 13.3027 47.5466 13.2656 47.5581C13.2012 47.5784 13.1377 47.6006 13.0742 47.623C13.0449 47.6333 13.0146 47.6428 12.9863 47.6536C12.8945 47.6875 12.8037 47.7231 12.7139 47.761C12.6963 47.7688 12.6777 47.7773 12.6602 47.7852C12.5889 47.8162 12.5176 47.8481 12.4473 47.8816C12.4141 47.8975 12.3818 47.9143 12.3496 47.9307C12.2949 47.9578 12.2402 47.9856 12.1865 48.0142C12.1504 48.0334 12.1152 48.0535 12.0801 48.0732C12.0303 48.1011 11.9814 48.1292 11.9326 48.1584C11.8486 48.2085 11.7666 48.2605 11.6846 48.3142C11.6494 48.3374 11.6152 48.3608 11.5801 48.3848C11.5342 48.4163 11.4893 48.4487 11.4434 48.4817C11.4102 48.5059 11.377 48.5303 11.3438 48.5552C11.2979 48.5903 11.2529 48.6262 11.207 48.6626C11.1768 48.687 11.1465 48.7107 11.1162 48.7356C11.0654 48.7778 11.0166 48.8215 10.9668 48.8652C10.9443 48.8855 10.9209 48.905 10.8984 48.9258C10.8281 48.9897 10.7588 49.0554 10.6914 49.1226C10.6709 49.1433 10.6504 49.165 10.6299 49.1863C10.583 49.2341 10.5371 49.2822 10.4912 49.3315C10.4648 49.3604 10.4404 49.3899 10.4141 49.4192C10.376 49.4624 10.3379 49.5056 10.3008 49.5498C10.2744 49.5818 10.248 49.6143 10.2227 49.6467C10.1875 49.6897 10.1533 49.7332 10.1201 49.7769C10.0615 49.8545 10.0039 49.9331 9.94824 50.0132C9.92383 50.0483 9.90039 50.0835 9.87695 50.1189C9.8457 50.1653 9.81641 50.2124 9.78613 50.2595C9.76465 50.2947 9.74219 50.3296 9.7207 50.3652C9.69043 50.4155 9.66113 50.467 9.63281 50.5183C9.61426 50.5518 9.59473 50.5847 9.57617 50.6184C9.54199 50.6816 9.50977 50.7454 9.47852 50.8098C9.4668 50.8328 9.4541 50.8552 9.44336 50.8784C9.40137 50.9651 9.3623 51.053 9.32422 51.1418C9.31152 51.1719 9.2998 51.2029 9.28711 51.2332C9.2627 51.2937 9.23828 51.354 9.21582 51.415C9.20117 51.4526 9.18848 51.4905 9.17578 51.5281C9.15625 51.5835 9.13672 51.6389 9.11914 51.6951C9.10645 51.7351 9.09375 51.7756 9.08203 51.8162C9.06543 51.8711 9.0498 51.9258 9.03516 51.9812C9.00879 52.0781 8.98535 52.1758 8.96387 52.2739C8.95508 52.3162 8.94629 52.3582 8.9375 52.4006C8.93359 52.4199 8.92871 52.439 8.92578 52.458L3.70312 52.458C2.95312 52.458 2.34375 51.8484 2.34375 51.0986L2.34375 45.0005C2.3418 44.2451 2.59473 43.5112 3.06152 42.9172C3.52734 42.323 4.18066 41.9033 4.91504 41.7253C5.58203 41.562 6.15625 41.376 6.62402 41.1704L49.1865 41.1704C49.833 41.1704 50.3584 40.6458 50.3584 39.9985C50.3584 39.3516 49.833 38.8267 49.1865 38.8267L23.999 38.8267L23.999 17.6365C23.999 16.2134 25.1572 15.0552 26.5811 15.0552L55.0273 15.0552C57.2734 15.0552 57.6094 18.2034 57.6094 20.0801L57.6094 50.5566C57.6094 52.2117 56.417 52.4587 55.707 52.4587ZM47.9385 21.6616C49.3799 21.9863 50.4609 23.2764 50.4609 24.8147C50.4609 26.1162 49.6875 27.24 48.5762 27.752C49.3584 28.7207 49.8154 29.9463 49.8154 31.2424C49.8154 34.3027 47.3252 36.7927 44.2646 36.7927C43.2617 36.7922 42.2773 36.5203 41.417 36.0051C40.5605 36.5171 39.5762 36.7927 38.5684 36.7927C35.5078 36.7927 33.0176 34.3027 33.0176 31.2424C33.0176 29.9463 33.4746 28.7207 34.2578 27.752C33.1465 27.24 32.373 26.1162 32.373 24.8147C32.373 23.2766 33.4521 21.9871 34.8936 21.6619C34.8857 21.5774 34.8799 21.4924 34.8789 21.4065C34.8604 20.4482 35.2227 19.5403 35.9004 18.8499C36.582 18.1543 37.5322 17.7556 38.5068 17.7556C39.6973 17.7556 40.7559 18.3337 41.418 19.2239C42.0811 18.3337 43.1387 17.7556 44.3271 17.7556C45.3105 17.7556 46.2666 18.1597 46.9521 18.864C47.625 19.5566 47.9814 20.4634 47.9541 21.4167C47.9521 21.4993 47.9463 21.5806 47.9385 21.6616ZM38 20.2004C37.8398 20.2678 37.6943 20.3665 37.5732 20.491C37.3408 20.7285 37.2158 21.0374 37.2217 21.3613C37.2354 22.0703 37.8203 22.6567 38.5254 22.6682C38.6914 22.6704 38.8555 22.6389 39.0078 22.5759C39.0459 22.5576 39.083 22.5391 39.1211 22.5217C39.2246 22.4661 39.3203 22.396 39.4033 22.3135C39.5273 22.1924 39.625 22.0481 39.6914 21.8884C39.7578 21.729 39.792 21.5579 39.791 21.385C39.79 20.6763 39.2139 20.0994 38.5068 20.0994C38.333 20.0989 38.1602 20.1333 38 20.2004ZM45.2715 20.4978C45.0254 20.2446 44.6807 20.0996 44.3271 20.0996C43.6221 20.0996 43.0459 20.6777 43.043 21.3884C43.041 21.7385 43.1758 22.0647 43.4199 22.3076C43.5059 22.3928 43.6035 22.4646 43.71 22.521C43.7314 22.5303 43.752 22.5408 43.7734 22.5505C43.9424 22.6279 44.127 22.668 44.3135 22.6682C45.0088 22.6602 45.5918 22.0693 45.6113 21.3508C45.6201 21.0356 45.5 20.7329 45.2715 20.4978ZM35.6055 23.9258C35.1152 23.9258 34.7168 24.3245 34.7168 24.8149C34.7168 25.3049 35.1152 25.7039 35.6055 25.7039C35.9248 25.7039 36.2041 25.5342 36.3613 25.2808C36.3887 25.2207 36.417 25.1611 36.4463 25.1023C36.4766 25.0117 36.4941 24.9155 36.4941 24.8149C36.4941 24.3245 36.0957 23.9258 35.6055 23.9258ZM46.4727 25.2808C46.6289 25.5342 46.9092 25.7039 47.2275 25.7039C47.7178 25.7039 48.1172 25.3049 48.1172 24.8149C48.1172 24.3245 47.7188 23.9258 47.2285 23.9258C46.7383 23.9258 46.3389 24.3245 46.3389 24.8149C46.3389 24.9126 46.3555 25.0098 46.3877 25.1023C46.417 25.1611 46.4453 25.2207 46.4727 25.2808ZM42.1797 33.677C42.7607 34.175 43.5 34.449 44.2646 34.4492C46.0332 34.4492 47.4717 33.0105 47.4717 31.2427C47.4717 29.9023 46.627 28.6919 45.3691 28.2307C45.1631 28.155 44.9814 28.0229 44.8467 27.8496C44.7119 27.676 44.6289 27.468 44.6064 27.2495C44.5732 26.9272 44.4922 26.6118 44.3652 26.314C44.3232 26.2346 44.2842 26.1538 44.249 26.0708C43.9375 25.4844 43.4512 25.0095 42.8574 24.7124C42.8066 24.6899 42.7559 24.6665 42.7061 24.6418C42.3115 24.4692 41.875 24.3738 41.417 24.3738C40.9717 24.373 40.5322 24.4648 40.125 24.6428C40.0742 24.6677 40.0244 24.6912 39.9736 24.7136C39.3809 25.0107 38.8955 25.4851 38.584 26.0708C38.5488 26.1538 38.5098 26.2346 38.4678 26.314C38.3408 26.6118 38.2598 26.9272 38.2266 27.2495C38.2041 27.468 38.1211 27.676 37.9863 27.8496C37.8516 28.0229 37.6709 28.155 37.4648 28.2307C36.207 28.6919 35.3613 29.9023 35.3613 31.2427C35.3613 33.0107 36.7998 34.4492 38.5684 34.4492C39.333 34.449 40.0732 34.175 40.6533 33.677C40.8662 33.4946 41.1367 33.3943 41.417 33.3945C41.6963 33.3943 41.9668 33.4944 42.1797 33.677ZM12.4648 26.7378C12.6143 26.3833 12.8652 26.0808 13.1865 25.8687C13.5078 25.6562 13.8848 25.5437 14.2695 25.5447L21.6553 25.5447L21.6553 38.8267L8.47363 38.8267L12.4648 26.7378ZM55.043 39.7759C55.0273 39.7007 55.0059 39.6274 54.9766 39.5566C54.9473 39.4856 54.9111 39.4177 54.8682 39.354C54.8262 39.2898 54.7773 39.23 54.7227 39.1758C54.6689 39.1213 54.6094 39.0728 54.5449 39.0305C54.417 38.9458 54.2734 38.8865 54.123 38.856C53.9717 38.8254 53.8164 38.8254 53.666 38.856C53.5908 38.8711 53.5176 38.8933 53.4453 38.9226C53.375 38.9519 53.3076 38.9883 53.2441 39.0305C53.1797 39.0728 53.1201 39.1218 53.0664 39.1758C53.0117 39.2297 52.9629 39.2896 52.9199 39.354C52.877 39.4172 52.8408 39.4851 52.8125 39.5566C52.7832 39.627 52.7598 39.7007 52.7461 39.7759C52.7305 39.8508 52.7227 39.9282 52.7227 40.0044C52.7227 40.0803 52.7305 40.1577 52.7461 40.2339C52.7598 40.3079 52.7832 40.3816 52.8125 40.4531C52.8418 40.5234 52.8789 40.5913 52.9209 40.6548C52.9629 40.7192 53.0117 40.7788 53.0664 40.8328C53.1201 40.8867 53.1797 40.936 53.2441 40.9792C53.3076 41.0215 53.375 41.0566 53.4453 41.0859C53.5176 41.1152 53.5908 41.1387 53.666 41.1528C53.7412 41.168 53.8184 41.1763 53.8945 41.1763C53.9707 41.1763 54.0479 41.168 54.123 41.1528C54.1982 41.1387 54.2715 41.1152 54.3418 41.0859C54.4141 41.0566 54.4814 41.0215 54.5449 40.9792C54.6094 40.936 54.6689 40.8867 54.7227 40.8328C54.7773 40.7788 54.8262 40.7192 54.8682 40.6548C54.9102 40.5913 54.9473 40.5234 54.9766 40.4531C55.0059 40.3816 55.0273 40.3079 55.043 40.2339C55.0586 40.1577 55.0664 40.0803 55.0664 40.0044C55.0664 39.9282 55.0586 39.8508 55.043 39.7759ZM15.1865 57.6562C12.9668 57.6562 11.1611 55.8503 11.1611 53.6306C11.1611 53.6033 11.1631 53.5762 11.1631 53.5488C11.1641 53.5068 11.1641 53.4651 11.166 53.4233C11.167 53.4167 11.168 53.4104 11.168 53.4038C11.2861 51.2893 13.043 49.6052 15.1865 49.6052C17.126 49.6052 18.75 50.9841 19.1289 52.813L19.1299 52.8201C19.1426 52.8821 19.1543 52.9446 19.1641 53.0076L19.166 53.0181C19.1729 53.0637 19.1777 53.1101 19.1836 53.1565C19.1855 53.1775 19.1895 53.1982 19.1914 53.2192C19.1953 53.2554 19.1973 53.2922 19.1992 53.3284C19.2021 53.3601 19.2051 53.3916 19.207 53.4236C19.208 53.4563 19.208 53.4895 19.209 53.5227C19.21 53.5586 19.2119 53.5942 19.2119 53.6306C19.2119 55.8503 17.4062 57.6562 15.1865 57.6562ZM46.1299 57.6562C43.9102 57.6562 42.1045 55.8503 42.1045 53.6306C42.1045 53.5784 42.1064 53.5264 42.1084 53.4744C42.1094 53.4575 42.1094 53.4404 42.1094 53.4238C42.1113 53.3853 42.1152 53.3472 42.1182 53.3088C42.1211 53.2791 42.1221 53.249 42.125 53.2195C42.127 53.207 42.1289 53.1948 42.1299 53.1824C42.1436 53.0601 42.1621 52.939 42.1865 52.8203C42.1875 52.8169 42.1885 52.8135 42.1885 52.8098C42.5693 50.9827 44.1914 49.6052 46.1299 49.6052C46.6846 49.6052 47.2139 49.718 47.6953 49.9221C49.1396 50.5342 50.1553 51.9661 50.1553 53.6309C50.1553 55.8503 48.3496 57.6562 46.1299 57.6562Z" fill="#F1CDB3" fill-opacity="1.000000" fill-rule="evenodd"/>
</svg>
